<svg xmlns="http://www.w3.org/2000/svg" viewBox="0 0 2197.43953 690.09668"><defs><style>.cls-1,.cls-2{fill:none;stroke:#00792e;stroke-linecap:round;stroke-linejoin:round;}.cls-1{stroke-width:5.92122px;}.cls-2{stroke-width:6.69354px;}.cls-3,.cls-5{fill:#00792e;}.cls-4,.cls-6{fill:#8cc63f;}.cls-5{font-size:469.29758px;font-family:Poppins-ExtraBold, Poppins;font-weight:800;}.cls-6{font-family:Poppins-Light, Poppins;font-weight:300;}</style></defs><g id="Capa_2" data-name="Capa 2"><g id="Capa_6" data-name="Capa 6"><path class="cls-1" d="M297.976,216.92072c1.06681-.2667-58.09357-84.55832-58.40356-85.0002v-.02034l-45.68232-18.03233c-.53929,15.04909-25.38055,27.1228-44.1359,27.1228-18.75469,0-42.13941-12.07371-42.67872-27.1228l-45.6823,18.03233S1.90575,216.653,2.97485,216.92072c1.06976.267,53.47207,38.49942,53.47207,38.49942l4.94627-5.82117V405.00758H239.57243V249.616l4.93182,5.80411S296.90689,217.18775,297.976,216.92072Z"/><path class="cls-1" d="M107.07549,113.86785s46.73369,15.3873,86.81462,0"/><line class="cls-1" x1="61.94136" y1="395.65008" x2="238.45804" y2="395.65008"/><line class="cls-1" x1="240.92265" y1="251.14243" x2="294.92911" y2="212.91036"/><line class="cls-1" x1="60.60457" y1="251.14243" x2="6.5978" y2="212.91036"/><line class="cls-1" x1="61.39319" y1="249.59897" x2="61.39319" y2="198.87789"/><line class="cls-1" x1="239.73775" y1="249.59897" x2="239.73775" y2="198.87789"/><path class="cls-2" d="M192.09833,248.37744,208.847,270.58691a12.33278,12.33278,0,0,1-9.83119,19.7583l-50.76766.06324"/><polygon class="cls-3" points="150.172 303.332 141.993 290.417 150.14 277.479 150.224 277.479 150.257 303.332 150.172 303.332"/><path class="cls-2" d="M124.07283,226.93726l16.43772-21.24952a12.33242,12.33242,0,0,1,19.6929.2439l24.49722,33.3418"/><polygon class="cls-3" points="193.987 230.082 188.405 244.314 173.154 245.39 173.104 245.322 193.938 230.014 193.987 230.082"/><path class="cls-2" d="M135.49768,290.42358l-33.5702-.063a12.3326,12.3326,0,0,1-9.84137-19.73414l.83093-1.10766,23.3678-31.69678"/><polygon class="cls-3" points="104.748 231.688 119.996 232.786 125.558 247.029 125.507 247.097 104.698 231.756 104.748 231.688"/><path class="cls-3" d="M73.23406,92.525c.63606-9.50483,5.40332-18.43231,12.03075-25.27517,6.62768-6.84292,15.02007-11.75619,23.75742-15.552,3.55128,11.02,7.14784,22.51005,5.52211,33.97349-1.41333,9.96458-12.10912,30.00041-22.7137,33.19686-.32627.09835-.64784.17632-.966.24237a79.26371,79.26371,0,0,1,8.05047-32.2615,2.84309,2.84309,0,1,0-5.10279-2.50881,84.96354,84.96354,0,0,0-8.61481,34.22725C76.913,115.02326,72.739,99.92079,73.23406,92.525Z"/><path class="cls-3" d="M51.52791,89.47229c9.18546,4.72229,25.09429,21.26482,24.73163,31.88809a8.96862,8.96862,0,0,1-.72512,3.31008A80.24372,80.24372,0,0,1,42.6613,100.63905a2.84322,2.84322,0,0,0-4.42342,3.57336A85.99342,85.99342,0,0,0,71.28961,129.07c-7.21931,3.97206-20.41122,2.50232-26.5942-.15527-8.99388-3.86566-16.08207-11.238-20.54543-19.55674-4.46366-8.319-6.48414-17.55215-7.3103-26.70789C28.66556,83.28387,40.96088,84.03965,51.52791,89.47229Z"/><path class="cls-4" d="M2178.86752,118.47566c-8.86959,19.39185-41.48117,53.7698-63.42555,54.02793a18.517,18.517,0,0,1-6.89555-1.18206,165.67339,165.67339,0,0,1,46.45042-70.0753,5.87019,5.87019,0,1,0-7.78883-8.78468,177.54469,177.54469,0,0,0-48.13743,70.52191c-8.87592-14.51333-7.094-41.86025-2.1984-54.86409,7.121-18.91558,21.65471-34.23286,38.38913-44.22619,16.73476-9.994,35.58645-15.03556,54.39152-17.60658C2189.46567,70.737,2189.07135,96.16713,2178.86752,118.47566Z"/><text class="cls-5" transform="translate(308.22371 401.01074) scale(0.9419 1)">Eco<tspan class="cls-6" x="840.49801" y="0">sture</tspan></text></g></g></svg>