<svg xmlns="http://www.w3.org/2000/svg" viewBox="0 0 2525.36368 724.25367"><defs><style>.cls-1,.cls-2{fill:none;stroke:#00792e;stroke-linecap:round;stroke-linejoin:round;}.cls-1{stroke-width:12.03711px;}.cls-2{stroke-width:13.60714px;}.cls-3{fill:#00792e;}.cls-4{fill:#8cc63f;}</style></defs><g id="Capa_2" data-name="Capa 2"><g id="Capa_6" data-name="Capa 6"><path class="cls-1" d="M605.74841,335.87775c2.16868-.54217-118.09707-171.89663-118.72723-172.79491v-.04135L394.15466,126.384c-1.09631,30.59293-51.59553,55.1373-89.72283,55.1373-38.126,0-85.66422-24.54437-86.76057-55.1373l-92.86648,36.6575S3.87415,335.33358,6.0475,335.87775c2.17469.54284,108.70212,78.26457,108.70212,78.26457l10.05516-11.83372V718.23511h362.2164V402.34328l10.02578,11.799S603.57507,336.42059,605.74841,335.87775Z"/><path class="cls-1" d="M217.67126,126.384s95.00383,31.28048,176.4834,0"/><line class="cls-1" x1="125.91913" y1="699.21248" x2="484.75577" y2="699.21248"/><line class="cls-1" x1="489.76601" y1="405.44626" x2="599.55447" y2="327.72519"/><line class="cls-1" x1="123.20161" y1="405.44626" x2="13.41251" y2="327.72519"/><line class="cls-1" x1="124.80478" y1="402.3086" x2="124.80478" y2="299.1989"/><line class="cls-1" x1="487.35725" y1="402.3086" x2="487.35725" y2="299.1989"/><path class="cls-2" d="M390.51219,399.82525l34.048,45.14941c12.44857,16.50782.68955,40.1399-19.98561,40.166l-103.20438.12866"/><polygon class="cls-3" points="305.282 511.541 288.654 485.287 305.216 458.986 305.388 458.986 305.453 511.541 305.282 511.541"/><path class="cls-2" d="M252.22477,356.24005l33.41584-43.19751a25.07047,25.07047,0,0,1,40.03323.4956l49.79983,67.77979"/><polygon class="cls-3" points="394.353 362.634 383.005 391.565 352 393.752 351.898 393.613 394.251 362.495 394.353 362.634"/><path class="cls-2" d="M275.45007,485.3001l-68.24408-.12817c-20.63983-.03857-32.39352-23.60742-20.00629-40.11719l1.68921-2.25146,47.50385-64.43555"/><polygon class="cls-3" points="212.941 365.897 243.937 368.131 255.243 397.084 255.141 397.222 212.839 366.035 212.941 365.897"/><path class="cls-3" d="M148.87581,82.99653c1.293-19.32215,10.98427-37.47061,24.457-51.3813C186.80609,17.70441,203.86679,7.71634,221.62873,0c7.21932,22.40241,14.53069,45.76016,11.22578,69.06393-2.87312,20.25675-24.61635,60.98712-46.17416,67.4851-.66326.19994-1.317.35844-1.96369.49272A161.13321,161.13321,0,0,1,201.08227,71.4581,5.77965,5.77965,0,1,0,190.70892,66.358a172.7206,172.7206,0,0,0-17.51283,69.57978C156.35453,128.73279,147.86946,98.03133,148.87581,82.99653Z"/><path class="cls-3" d="M104.74988,76.79083c18.67291,9.59982,51.0136,43.22875,50.27636,64.82455a18.23221,18.23221,0,0,1-1.4741,6.729,163.12553,163.12553,0,0,1-66.827-48.85288,5.7799,5.7799,0,1,0-8.99225,7.2642A174.814,174.814,0,0,0,144.923,157.288c-14.676,8.07471-41.49349,5.08691-54.06274-.31565C72.5768,149.114,58.16739,134.127,49.09393,117.216,40.01985,100.30453,35.91247,81.53461,34.233,62.92212,58.27355,64.21052,83.26842,65.74693,104.74988,76.79083Z"/><path class="cls-4" d="M2514.57837,283.17714c-8.86959,19.39184-41.48117,53.76979-63.42555,54.02792a18.51707,18.51707,0,0,1-6.89555-1.18206,165.67338,165.67338,0,0,1,46.45043-70.0753,5.87019,5.87019,0,0,0-7.78883-8.78468,177.54461,177.54461,0,0,0-48.13744,70.52191c-8.87591-14.51333-7.094-41.86025-2.1984-54.86408,7.121-18.91559,21.65471-34.23287,38.38913-44.22619,16.73476-9.994,35.58645-15.03556,54.39152-17.60659C2525.17652,235.43846,2524.7822,260.8686,2514.57837,283.17714Z"/><path class="cls-3" d="M868.04492,308.53643H755.32617v53.96973h99.458V432.431h-99.458v59.60157H868.04492v73.67968H668.68847V234.85577H868.04492Z"/><path class="cls-3" d="M1022.30859,299.15069c62.76855,0,108.74023,38.0127,121.11719,104.18359h-91.94239c-4.8623-15.95605-14.58789-25.81054-30.94238-25.81054-21.21777,0-35.36328,18.77148-35.36328,56.31543,0,38.01269,14.14551,56.78515,35.36328,56.78515,16.35449,0,26.08008-9.38574,30.94238-25.81152h91.94239c-12.377,65.23242-58.34864,104.18457-121.11719,104.18457-73.81934,0-125.53711-51.15332-125.53711-135.1582C896.77148,350.304,948.48925,299.15069,1022.30859,299.15069Z"/><path class="cls-3" d="M1294.59765,568.99737c-73.81933,0-129.51562-51.15332-129.51562-135.1582,0-83.53516,56.13867-134.68848,129.958-134.68848s129.957,51.15332,129.957,134.68848C1424.99707,517.84405,1368.417,568.99737,1294.59765,568.99737Zm0-79.78125c22.10156,0,42.43555-17.36426,42.43555-55.37695,0-37.544-19.8916-54.90821-41.99317-54.90821s-41.55175,17.36426-41.55175,54.90821C1253.48828,471.85186,1272.05371,489.21612,1294.59765,489.21612Z"/><path class="cls-4" d="M1554.06445,569.4671c-54.8125,0-93.26856-29.09668-97.24707-76.02735h31.82617c2.65234,28.15821,25.6377,48.33789,64.97852,48.33789,34.47851,0,53.92773-19.71,53.92773-44.11425,0-63.3545-144.98633-26.28028-144.98633-122.48731,0-38.01269,34.03613-69.45508,84.87012-69.45508,51.71777,0,85.75391,29.09571,88.40625,78.373h-30.94238c-1.76758-28.62793-21.65918-50.21582-58.34766-50.21582-32.26855,0-52.60156,18.30273-52.60156,40.8291,0,69.45606,142.77539,32.38184,144.10156,122.95606C1638.0498,538.96221,1604.01367,569.4671,1554.06445,569.4671Z"/><path class="cls-4" d="M1705.23632,337.16339H1671.6416V309.47491h33.59472V245.181h31.38477v64.294h66.30469v27.68848h-66.30469V496.25616c0,31.44238,10.166,41.29785,38.01465,41.29785h28.29v28.1582h-33.15235c-41.99316,0-64.53711-18.30273-64.53711-69.456Z"/><path class="cls-4" d="M2062.834,565.71221H2031.8916V520.65948c-14.58692,32.38184-46.41309,49.27637-82.21778,49.27637-54.81152,0-98.13086-35.667-98.13086-110.75489v-149.706h30.5V455.42706c0,56.78515,29.17481,85.88183,73.37793,85.88183,45.08692,0,76.47071-30.03515,76.47071-92.45215V309.47491H2062.834Z"/><path class="cls-4" d="M2164.499,565.71221h-30.94238V309.47491H2164.499v45.52148c13.26074-31.44238,41.10937-50.21484,82.66016-50.21484v34.25977h-8.39844c-40.22559,0-74.26172,19.24023-74.26172,83.53417Z"/><path class="cls-4" d="M2397.8916,569.4671c-68.51465,0-118.46387-50.68457-118.46387-131.874,0-81.65722,49.06543-131.87207,118.46387-131.87207,70.72558,0,114.04492,53.5,114.04492,118.73242,0,10.32422,0,16.89454-.88477,25.81153H2310.81152c2.65234,60.07031,41.99316,91.51269,87.08008,91.51269,41.10937,0,68.957-22.99511,77.79785-57.2539h32.71094C2497.3496,532.86163,2458.45019,569.4671,2397.8916,569.4671ZM2310.81152,423.515h169.74023c1.32618-59.60156-39.34082-89.63672-83.98535-89.63672C2352.80468,333.87823,2314.34765,363.91339,2310.81152,423.515Z"/></g></g></svg>