<svg xmlns="http://www.w3.org/2000/svg" viewBox="0 0 187.08597 189.95065"><defs><style>.cls-1,.cls-2,.cls-3,.cls-7{fill:none;stroke:#383838;stroke-linecap:round;stroke-linejoin:round;}.cls-1{stroke-width:1.8px;}.cls-2{stroke-width:2.03968px;}.cls-3{stroke-width:1.9178px;stroke-dasharray:11.85852 11.85852;}.cls-4{font-size:18px;font-family:Quicksand-Bold, Quicksand;font-weight:700;letter-spacing:0.20001em;}.cls-4,.cls-6{fill:#383838;}.cls-5,.cls-6{font-family:Quicksand-Regular, Quicksand;}.cls-5{font-weight:400;}.cls-6{font-size:10px;letter-spacing:0.26001em;}.cls-7{stroke-width:0.90353px;}</style></defs><g id="Capa_2" data-name="Capa 2"><g id="OBJECTS"><path class="cls-1" d="M139.88488,100.39238c.2093-.0523-6.9574-10.395-12.395-18.1921a34.401,34.401,0,0,0-15.5775-12.3162l-4.7292-1.8689c-.1696,4.7281-7.9742,8.5214-13.8667,8.5214s-13.2395-3.7933-13.4089-8.5214l-4.7212,1.8636a34.41869,34.41869,0,0,0-15.59429,12.3277c-5.43811,7.7976-12.6,18.1336-12.39091,18.1859.336.0841,16.79991,12.0959,16.79991,12.0959l1.554-1.8289v30.2232h55.98049v-30.218l1.5496,1.8237S139.549,100.47648,139.88488,100.39238Z"/><path class="cls-1" d="M79.90758,68.01518s14.6828,4.8345,27.2756,0"/><line class="cls-1" x1="65.55509" y1="110.65938" x2="65.55509" y2="94.72368"/><line class="cls-1" x1="121.58748" y1="110.65938" x2="121.58748" y2="94.72368"/><polyline class="cls-1" points="80.234 69.895 93.509 63.132 106.939 70.052"/><path class="cls-1" d="M93.704,58.49058a6.90625,6.90625,0,1,1,6.9063-6.9063"/><line class="cls-1" x1="93.58778" y1="62.78508" x2="93.58778" y2="59.14198"/><path class="cls-2" d="M33.47263,1.01984H153.61344a17.40778,17.40778,0,0,1,17.40778,17.40778V171.523a17.40778,17.40778,0,0,1-17.40778,17.40778H33.47262A17.40777,17.40777,0,0,1,16.06485,171.523V18.42762A17.40778,17.40778,0,0,1,33.47263,1.01984Z"/><path class="cls-3" d="M150.025,183.31816H37.0611a16.36791,16.36791,0,0,1-16.36788-16.36792V23.00041A16.36788,16.36788,0,0,1,37.0611,6.63252H150.025a16.36789,16.36789,0,0,1,16.36789,16.36789V166.95024A16.36792,16.36792,0,0,1,150.025,183.31816Z"/><text class="cls-4" transform="translate(30.89527 37.44089)">ECO<tspan class="cls-5" x="50.65187" y="0">STURE</tspan></text><text class="cls-6" transform="translate(74.50918 159.72307)">MODA<tspan x="-23.75977" y="12">SOSTENIBLE</tspan></text><line class="cls-1" x1="27.74958" y1="48.63878" x2="159.58748" y2="48.63878"/><line class="cls-1" x1="135.02909" y1="154.77858" x2="159.85728" y2="154.77858"/><line class="cls-1" x1="27.12948" y1="154.77858" x2="51.95768" y2="154.77858"/><path class="cls-7" d="M93.702,124.98048V88.25708C93.7932,88.53045,71.832,114.77447,93.702,124.98048Z"/><path class="cls-7" d="M93.70611,88.25708v36.7234C115.57618,114.77447,93.615,88.53045,93.70611,88.25708Z"/><path class="cls-7" d="M90.39055,93.26235a17.43356,17.43356,0,0,0,3.35291,12.61106"/><path class="cls-7" d="M86.61418,100.37672a17.97143,17.97143,0,0,0,2.51393,7.86209A41.54193,41.54193,0,0,0,93.813,114.7042"/><path class="cls-7" d="M84.213,108.84157a14.29994,14.29994,0,0,0,3.48267,7.03707,22.83018,22.83018,0,0,0,6.12932,5.1651"/><path class="cls-7" d="M97.12458,93.26235a17.43391,17.43391,0,0,1-3.353,12.61106"/><path class="cls-7" d="M100.90089,100.37672a17.97143,17.97143,0,0,1-2.51393,7.86209A41.538,41.538,0,0,1,93.702,114.7042"/><path class="cls-7" d="M103.302,108.84157a14.29958,14.29958,0,0,1-3.48266,7.03707,22.82957,22.82957,0,0,1-6.12932,5.1651"/></g></g></svg>